<svg width="1002" height="513" viewBox="0 0 1002 513" fill="none" xmlns="http://www.w3.org/2000/svg">
<g filter="url(#filter0_d_101_24)">
<path d="M324.361 421.813H325.861V420.313V359.823V358.323H324.361H275.77V127.687V126.187H274.27H193.309H192.568L192.117 126.776L9.80858 365.116L9.5 365.519V366.027V420.313V421.813H11H187.149V496.83V498.33H188.649H274.27H275.77V496.83V421.813H324.361ZM188.901 236.659L188.899 236.687L188.898 236.715C188.509 246.37 188.121 256.885 187.732 268.262C187.344 279.646 187.149 289.315 187.149 297.265V358.323H91.4555L165.959 258.368C171.425 251.436 176.119 244.666 180.037 238.058C183.657 231.954 187.107 225.702 190.39 219.301C190.015 222.92 189.518 228.713 188.901 236.659ZM389.099 452.702L389.103 452.708C412.747 486.638 449.963 503.5 500.418 503.5C536.336 503.5 565.023 495.878 586.327 480.473C607.975 465.099 623.486 443.107 632.891 414.59C642.665 386.13 647.531 352.008 647.531 312.258C647.531 252.112 635.658 205.062 611.726 171.283C587.696 137.366 550.49 120.5 500.418 120.5C464.877 120.5 436.196 128.126 414.511 143.525C392.858 158.901 377.346 180.898 367.94 209.421C358.557 237.878 353.886 272.168 353.886 312.258C353.886 371.717 365.566 418.585 389.099 452.702ZM991 421.813H992.5V420.313V359.823V358.323H991H942.409V127.687V126.187H940.909H859.947H859.206L858.756 126.776L676.447 365.116L676.139 365.519V366.027V420.313V421.813H677.639H853.788V496.83V498.33H855.288H940.909H942.409V496.83V421.813H991ZM855.54 236.659L855.537 236.687L855.536 236.715C855.148 246.37 854.76 256.885 854.371 268.262C853.982 279.646 853.788 289.315 853.788 297.265V358.323H758.094L832.585 258.385C832.589 258.379 832.593 258.374 832.597 258.369C838.063 251.437 842.758 244.666 846.676 238.058C850.295 231.954 853.746 225.702 857.029 219.301C856.654 222.92 856.157 228.713 855.54 236.659ZM456.386 406.848C448.331 385.738 444.254 354.249 444.254 312.258C444.254 270.265 448.332 238.775 456.387 217.664C460.383 207.192 466.048 199.448 473.324 194.314C480.597 189.183 489.599 186.575 500.418 186.575C511.036 186.575 519.942 189.18 527.219 194.314C534.503 199.453 540.266 207.205 544.456 217.686C552.892 238.788 557.163 270.268 557.163 312.258C557.163 354.598 552.891 386.072 544.459 406.823C540.272 417.129 534.512 424.753 527.229 429.809C519.951 434.861 511.041 437.425 500.418 437.425C489.594 437.425 480.589 434.858 473.315 429.809C466.04 424.758 460.379 417.143 456.386 406.848Z" stroke="#DF1313" stroke-width="3" shape-rendering="crispEdges"/>
</g>
<g filter="url(#filter1_d_101_24)">
<path d="M450.84 61H434.88V32.44H450.84V35.6H438.48V44.52H450.12V47.64H438.48V57.84H450.84V61ZM467.787 32.44C471.333 32.44 473.947 33.12 475.627 34.48C477.333 35.8133 478.187 37.84 478.187 40.56C478.187 42.08 477.907 43.3467 477.347 44.36C476.787 45.3733 476.067 46.1867 475.187 46.8C474.333 47.3867 473.427 47.8533 472.467 48.2L480.307 61H476.107L469.187 49.2H463.507V61H459.907V32.44H467.787ZM467.587 35.56H463.507V46.16H467.787C470.107 46.16 471.8 45.7067 472.867 44.8C473.933 43.8667 474.467 42.5067 474.467 40.72C474.467 38.8533 473.907 37.5333 472.787 36.76C471.667 35.96 469.933 35.56 467.587 35.56ZM495.469 32.44C499.016 32.44 501.629 33.12 503.309 34.48C505.016 35.8133 505.869 37.84 505.869 40.56C505.869 42.08 505.589 43.3467 505.029 44.36C504.469 45.3733 503.749 46.1867 502.869 46.8C502.016 47.3867 501.109 47.8533 500.149 48.2L507.989 61H503.789L496.869 49.2H491.189V61H487.589V32.44H495.469ZM495.269 35.56H491.189V46.16H495.469C497.789 46.16 499.483 45.7067 500.549 44.8C501.616 43.8667 502.149 42.5067 502.149 40.72C502.149 38.8533 501.589 37.5333 500.469 36.76C499.349 35.96 497.616 35.56 495.269 35.56ZM540.192 46.68C540.192 49.64 539.686 52.2267 538.672 54.44C537.686 56.6267 536.219 58.3333 534.272 59.56C532.326 60.7867 529.912 61.4 527.032 61.4C524.072 61.4 521.606 60.7867 519.632 59.56C517.686 58.3333 516.232 56.6133 515.272 54.4C514.312 52.1867 513.832 49.6 513.832 46.64C513.832 43.7067 514.312 41.1467 515.272 38.96C516.232 36.7733 517.686 35.0667 519.632 33.84C521.606 32.6133 524.086 32 527.072 32C529.926 32 532.326 32.6133 534.272 33.84C536.219 35.04 537.686 36.7467 538.672 38.96C539.686 41.1467 540.192 43.72 540.192 46.68ZM517.632 46.68C517.632 50.28 518.392 53.12 519.912 55.2C521.432 57.2533 523.806 58.28 527.032 58.28C530.286 58.28 532.659 57.2533 534.152 55.2C535.646 53.12 536.392 50.28 536.392 46.68C536.392 43.08 535.646 40.2667 534.152 38.24C532.659 36.1867 530.299 35.16 527.072 35.16C523.846 35.16 521.459 36.1867 519.912 38.24C518.392 40.2667 517.632 43.08 517.632 46.68ZM557.202 32.44C560.749 32.44 563.362 33.12 565.042 34.48C566.749 35.8133 567.602 37.84 567.602 40.56C567.602 42.08 567.322 43.3467 566.762 44.36C566.202 45.3733 565.482 46.1867 564.602 46.8C563.749 47.3867 562.842 47.8533 561.882 48.2L569.722 61H565.522L558.602 49.2H552.922V61H549.322V32.44H557.202ZM557.002 35.56H552.922V46.16H557.202C559.522 46.16 561.216 45.7067 562.282 44.8C563.349 43.8667 563.882 42.5067 563.882 40.72C563.882 38.8533 563.322 37.5333 562.202 36.76C561.082 35.96 559.349 35.56 557.002 35.56Z" fill="#DF1313"/>
<rect x="412" y="9" width="178" height="72" stroke="#DF1313" stroke-width="2" shape-rendering="crispEdges"/>
</g>
<defs>
<filter id="filter0_d_101_24" x="0" y="111" width="1002" height="402" filterUnits="userSpaceOnUse" color-interpolation-filters="sRGB">
<feFlood flood-opacity="0" result="BackgroundImageFix"/>
<feColorMatrix in="SourceAlpha" type="matrix" values="0 0 0 0 0 0 0 0 0 0 0 0 0 0 0 0 0 0 127 0" result="hardAlpha"/>
<feOffset/>
<feGaussianBlur stdDeviation="4"/>
<feComposite in2="hardAlpha" operator="out"/>
<feColorMatrix type="matrix" values="0 0 0 0 0.87451 0 0 0 0 0.0745098 0 0 0 0 0.0745098 0 0 0 1 0"/>
<feBlend mode="normal" in2="BackgroundImageFix" result="effect1_dropShadow_101_24"/>
<feBlend mode="normal" in="SourceGraphic" in2="effect1_dropShadow_101_24" result="shape"/>
</filter>
<filter id="filter1_d_101_24" x="403" y="0" width="196" height="90" filterUnits="userSpaceOnUse" color-interpolation-filters="sRGB">
<feFlood flood-opacity="0" result="BackgroundImageFix"/>
<feColorMatrix in="SourceAlpha" type="matrix" values="0 0 0 0 0 0 0 0 0 0 0 0 0 0 0 0 0 0 127 0" result="hardAlpha"/>
<feOffset/>
<feGaussianBlur stdDeviation="4"/>
<feComposite in2="hardAlpha" operator="out"/>
<feColorMatrix type="matrix" values="0 0 0 0 0.87451 0 0 0 0 0.0745098 0 0 0 0 0.0745098 0 0 0 1 0"/>
<feBlend mode="normal" in2="BackgroundImageFix" result="effect1_dropShadow_101_24"/>
<feBlend mode="normal" in="SourceGraphic" in2="effect1_dropShadow_101_24" result="shape"/>
</filter>
</defs>
</svg>
