<svg width="1002" height="513" viewBox="0 0 1002 513" fill="none" xmlns="http://www.w3.org/2000/svg">
<g filter="url(#filter0_d_74_21)">
<path d="M324.361 421.813H325.861V420.313V359.823V358.323H324.361H275.77V127.687V126.187H274.27H193.309H192.568L192.117 126.776L9.80858 365.116L9.5 365.519V366.027V420.313V421.813H11H187.149V496.83V498.33H188.649H274.27H275.77V496.83V421.813H324.361ZM188.901 236.659L188.899 236.687L188.898 236.715C188.509 246.37 188.121 256.885 187.732 268.262C187.344 279.646 187.149 289.315 187.149 297.265V358.323H91.4555L165.959 258.368C171.425 251.436 176.119 244.666 180.037 238.058C183.657 231.954 187.107 225.702 190.39 219.301C190.015 222.92 189.518 228.713 188.901 236.659ZM389.099 452.702L389.103 452.708C412.747 486.638 449.963 503.5 500.418 503.5C536.336 503.5 565.023 495.878 586.327 480.473C607.975 465.099 623.486 443.107 632.891 414.59C642.665 386.13 647.531 352.008 647.531 312.258C647.531 252.112 635.658 205.062 611.726 171.283C587.696 137.366 550.49 120.5 500.418 120.5C464.877 120.5 436.196 128.126 414.511 143.525C392.858 158.901 377.346 180.898 367.94 209.421C358.557 237.878 353.886 272.168 353.886 312.258C353.886 371.717 365.566 418.585 389.099 452.702ZM991 421.813H992.5V420.313V359.823V358.323H991H942.409V127.687V126.187H940.909H859.947H859.206L858.756 126.776L676.447 365.116L676.139 365.519V366.027V420.313V421.813H677.639H853.788V496.83V498.33H855.288H940.909H942.409V496.83V421.813H991ZM855.54 236.659L855.537 236.687L855.536 236.715C855.148 246.37 854.76 256.885 854.371 268.262C853.982 279.646 853.788 289.315 853.788 297.265V358.323H758.094L832.585 258.385C832.589 258.379 832.593 258.374 832.597 258.369C838.063 251.437 842.758 244.666 846.676 238.058C850.295 231.954 853.746 225.702 857.029 219.301C856.654 222.92 856.157 228.713 855.54 236.659ZM456.386 406.848C448.331 385.738 444.254 354.249 444.254 312.258C444.254 270.265 448.332 238.775 456.387 217.664C460.383 207.192 466.048 199.448 473.324 194.314C480.597 189.183 489.599 186.575 500.418 186.575C511.036 186.575 519.942 189.18 527.219 194.314C534.503 199.453 540.266 207.205 544.456 217.686C552.892 238.788 557.163 270.268 557.163 312.258C557.163 354.598 552.891 386.072 544.459 406.823C540.272 417.129 534.512 424.753 527.229 429.809C519.951 434.861 511.041 437.425 500.418 437.425C489.594 437.425 480.589 434.858 473.315 429.809C466.04 424.758 460.379 417.143 456.386 406.848Z" stroke="#DF1313" stroke-width="3" shape-rendering="crispEdges"/>
</g>
<g filter="url(#filter1_d_74_21)">
<path d="M450.84 61H434.88V32.44H450.84V35.6H438.48V44.52H450.12V47.64H438.48V57.84H450.84V61ZM467.787 32.44C471.333 32.44 473.947 33.12 475.627 34.48C477.333 35.8133 478.187 37.84 478.187 40.56C478.187 42.08 477.907 43.3467 477.347 44.36C476.787 45.3733 476.067 46.1867 475.187 46.8C474.333 47.3867 473.427 47.8533 472.467 48.2L480.307 61H476.107L469.187 49.2H463.507V61H459.907V32.44H467.787ZM467.587 35.56H463.507V46.16H467.787C470.107 46.16 471.8 45.7067 472.867 44.8C473.933 43.8667 474.467 42.5067 474.467 40.72C474.467 38.8533 473.907 37.5333 472.787 36.76C471.667 35.96 469.933 35.56 467.587 35.56ZM495.469 32.44C499.016 32.44 501.629 33.12 503.309 34.48C505.016 35.8133 505.869 37.84 505.869 40.56C505.869 42.08 505.589 43.3467 505.029 44.36C504.469 45.3733 503.749 46.1867 502.869 46.8C502.016 47.3867 501.109 47.8533 500.149 48.2L507.989 61H503.789L496.869 49.2H491.189V61H487.589V32.44H495.469ZM495.269 35.56H491.189V46.16H495.469C497.789 46.16 499.483 45.7067 500.549 44.8C501.616 43.8667 502.149 42.5067 502.149 40.72C502.149 38.8533 501.589 37.5333 500.469 36.76C499.349 35.96 497.616 35.56 495.269 35.56ZM540.192 46.68C540.192 49.64 539.686 52.2267 538.672 54.44C537.686 56.6267 536.219 58.3333 534.272 59.56C532.326 60.7867 529.912 61.4 527.032 61.4C524.072 61.4 521.606 60.7867 519.632 59.56C517.686 58.3333 516.232 56.6133 515.272 54.4C514.312 52.1867 513.832 49.6 513.832 46.64C513.832 43.7067 514.312 41.1467 515.272 38.96C516.232 36.7733 517.686 35.0667 519.632 33.84C521.606 32.6133 524.086 32 527.072 32C529.926 32 532.326 32.6133 534.272 33.84C536.219 35.04 537.686 36.7467 538.672 38.96C539.686 41.1467 540.192 43.72 540.192 46.68ZM517.632 46.68C517.632 50.28 518.392 53.12 519.912 55.2C521.432 57.2533 523.806 58.28 527.032 58.28C530.286 58.28 532.659 57.2533 534.152 55.2C535.646 53.12 536.392 50.28 536.392 46.68C536.392 43.08 535.646 40.2667 534.152 38.24C532.659 36.1867 530.299 35.16 527.072 35.16C523.846 35.16 521.459 36.1867 519.912 38.24C518.392 40.2667 517.632 43.08 517.632 46.68ZM557.202 32.44C560.749 32.44 563.362 33.12 565.042 34.48C566.749 35.8133 567.602 37.84 567.602 40.56C567.602 42.08 567.322 43.3467 566.762 44.36C566.202 45.3733 565.482 46.1867 564.602 46.8C563.749 47.3867 562.842 47.8533 561.882 48.2L569.722 61H565.522L558.602 49.2H552.922V61H549.322V32.44H557.202ZM557.002 35.56H552.922V46.16H557.202C559.522 46.16 561.216 45.7067 562.282 44.8C563.349 43.8667 563.882 42.5067 563.882 40.72C563.882 38.8533 563.322 37.5333 562.202 36.76C561.082 35.96 559.349 35.56 557.002 35.56Z" fill="#DF1313"/>
<rect x="412" y="9" width="178" height="72" stroke="#DF1313" stroke-width="2" shape-rendering="crispEdges"/>
</g>
<path d="M162.5 347.6C171.833 347.6 178.633 349.5 182.9 353.3C187.167 357.033 189.3 362.267 189.3 369C189.3 373 188.4 376.733 186.6 380.2C184.867 383.667 181.933 386.5 177.8 388.7C173.667 390.833 168.067 391.9 161 391.9H153.3V419H142.5V347.6H162.5ZM161.7 356.7H153.3V382.8H159.8C165.867 382.8 170.433 381.767 173.5 379.7C176.633 377.633 178.2 374.2 178.2 369.4C178.2 365.133 176.867 361.967 174.2 359.9C171.533 357.767 167.367 356.7 161.7 356.7ZM223.43 364.1C230.164 364.1 235.197 365.6 238.53 368.6C241.93 371.533 243.63 376.167 243.63 382.5V419H236.13L234.03 411.5H233.63C231.297 414.433 228.83 416.6 226.23 418C223.697 419.333 220.164 420 215.63 420C210.764 420 206.73 418.7 203.53 416.1C200.33 413.433 198.73 409.3 198.73 403.7C198.73 398.233 200.797 394.067 204.93 391.2C209.064 388.333 215.43 386.767 224.03 386.5L233.23 386.2V383.2C233.23 379.267 232.33 376.5 230.53 374.9C228.73 373.233 226.197 372.4 222.93 372.4C220.197 372.4 217.564 372.8 215.03 373.6C212.497 374.4 210.064 375.367 207.73 376.5L204.33 368.8C206.864 367.467 209.764 366.367 213.03 365.5C216.364 364.567 219.83 364.1 223.43 364.1ZM225.93 393.3C219.797 393.567 215.53 394.6 213.13 396.4C210.797 398.133 209.63 400.6 209.63 403.8C209.63 406.6 210.464 408.633 212.13 409.9C213.797 411.167 215.964 411.8 218.63 411.8C222.764 411.8 226.197 410.633 228.93 408.3C231.73 405.967 233.13 402.467 233.13 397.8V393.1L225.93 393.3ZM278.552 364.1C285.686 364.1 291.186 366.8 295.052 372.2H295.552L296.752 365.1H305.352V419.7C305.352 427.367 303.286 433.167 299.152 437.1C295.086 441.033 288.852 443 280.452 443C276.519 443 272.919 442.733 269.652 442.2C266.452 441.667 263.486 440.833 260.752 439.7V430.4C266.486 433.2 273.252 434.6 281.052 434.6C285.452 434.6 288.852 433.333 291.252 430.8C293.652 428.333 294.852 424.833 294.852 420.3V418.5C294.852 417.633 294.886 416.5 294.952 415.1C295.019 413.7 295.086 412.633 295.152 411.9H294.752C292.952 414.7 290.686 416.767 287.952 418.1C285.219 419.367 282.086 420 278.552 420C271.752 420 266.419 417.567 262.552 412.7C258.752 407.767 256.852 400.933 256.852 392.2C256.852 383.533 258.752 376.7 262.552 371.7C266.419 366.633 271.752 364.1 278.552 364.1ZM280.752 372.9C276.552 372.9 273.319 374.567 271.052 377.9C268.852 381.233 267.752 386.033 267.752 392.3C267.752 398.567 268.852 403.333 271.052 406.6C273.319 409.867 276.619 411.5 280.952 411.5C285.886 411.5 289.486 410.167 291.752 407.5C294.086 404.767 295.252 400.333 295.252 394.2V392.2C295.252 385.333 294.086 380.4 291.752 377.4C289.419 374.4 285.752 372.9 280.752 372.9ZM343.164 364.1C350.231 364.1 355.797 366.3 359.864 370.7C363.931 375.033 365.964 380.967 365.964 388.5V394.3H329.764C329.897 399.833 331.331 404.067 334.064 407C336.864 409.933 340.764 411.4 345.764 411.4C349.231 411.4 352.297 411.1 354.964 410.5C357.697 409.833 360.497 408.867 363.364 407.6V416.4C360.631 417.6 357.897 418.5 355.164 419.1C352.431 419.7 349.164 420 345.364 420C340.097 420 335.464 418.967 331.464 416.9C327.531 414.833 324.431 411.767 322.164 407.7C319.964 403.567 318.864 398.5 318.864 392.5C318.864 386.433 319.864 381.3 321.864 377.1C323.931 372.9 326.764 369.7 330.364 367.5C334.031 365.233 338.297 364.1 343.164 364.1ZM343.164 372.3C339.364 372.3 336.297 373.533 333.964 376C331.697 378.467 330.364 381.967 329.964 386.5H355.364C355.297 382.3 354.264 378.9 352.264 376.3C350.331 373.633 347.297 372.3 343.164 372.3ZM432.467 364.1C438.734 364.1 443.534 365.667 446.867 368.8C450.201 371.933 451.867 376.967 451.867 383.9V419H441.367V385.4C441.367 377 437.667 372.8 430.267 372.8C424.734 372.8 420.934 374.433 418.867 377.7C416.801 380.967 415.767 385.667 415.767 391.8V419H405.167V365.1H413.567L415.067 372.3H415.667C417.401 369.5 419.767 367.433 422.767 366.1C425.834 364.767 429.067 364.1 432.467 364.1ZM515.655 392C515.655 400.933 513.355 407.833 508.755 412.7C504.155 417.567 497.955 420 490.155 420C485.289 420 480.955 418.9 477.155 416.7C473.422 414.5 470.455 411.333 468.255 407.2C466.122 403 465.055 397.933 465.055 392C465.055 383.067 467.322 376.2 471.855 371.4C476.389 366.533 482.589 364.1 490.455 364.1C495.389 364.1 499.722 365.2 503.455 367.4C507.255 369.533 510.222 372.667 512.355 376.8C514.555 380.933 515.655 386 515.655 392ZM475.955 392C475.955 398.067 477.089 402.8 479.355 406.2C481.689 409.6 485.355 411.3 490.355 411.3C495.355 411.3 498.989 409.6 501.255 406.2C503.589 402.8 504.755 398.067 504.755 392C504.755 385.867 503.589 381.167 501.255 377.9C498.922 374.567 495.255 372.9 490.255 372.9C485.255 372.9 481.622 374.567 479.355 377.9C477.089 381.167 475.955 385.867 475.955 392ZM548.493 411.4C549.893 411.4 551.326 411.3 552.793 411.1C554.26 410.833 555.526 410.5 556.593 410.1V418.1C555.393 418.633 553.826 419.067 551.893 419.4C550.026 419.8 548.126 420 546.193 420C543.26 420 540.56 419.5 538.093 418.5C535.626 417.5 533.66 415.767 532.193 413.3C530.793 410.833 530.093 407.4 530.093 403V373.2H522.593V368.4L530.493 364.4L534.193 353H540.693V365.1H556.093V373.2H540.693V402.8C540.693 405.733 541.393 407.9 542.793 409.3C544.26 410.7 546.16 411.4 548.493 411.4ZM619.651 373.2H606.351V419H595.751V373.2H586.651V368.2L595.751 364.9V361.5C595.751 354.633 597.317 349.767 600.451 346.9C603.651 343.967 608.084 342.5 613.751 342.5C616.084 342.5 618.217 342.7 620.151 343.1C622.084 343.5 623.717 343.933 625.051 344.4L622.351 352.5C621.217 352.167 619.951 351.867 618.551 351.6C617.217 351.267 615.784 351.1 614.251 351.1C608.984 351.1 606.351 354.6 606.351 361.6V365.1H619.651V373.2ZM676.593 392C676.593 400.933 674.293 407.833 669.693 412.7C665.093 417.567 658.893 420 651.093 420C646.226 420 641.893 418.9 638.093 416.7C634.36 414.5 631.393 411.333 629.193 407.2C627.06 403 625.993 397.933 625.993 392C625.993 383.067 628.26 376.2 632.793 371.4C637.326 366.533 643.526 364.1 651.393 364.1C656.326 364.1 660.66 365.2 664.393 367.4C668.193 369.533 671.16 372.667 673.293 376.8C675.493 380.933 676.593 386 676.593 392ZM636.893 392C636.893 398.067 638.026 402.8 640.293 406.2C642.626 409.6 646.293 411.3 651.293 411.3C656.293 411.3 659.926 409.6 662.193 406.2C664.526 402.8 665.693 398.067 665.693 392C665.693 385.867 664.526 381.167 662.193 377.9C659.86 374.567 656.193 372.9 651.193 372.9C646.193 372.9 642.56 374.567 640.293 377.9C638.026 381.167 636.893 385.867 636.893 392ZM736.43 365.1V419H727.93L726.43 411.9H725.93C724.197 414.7 721.797 416.767 718.73 418.1C715.664 419.367 712.43 420 709.03 420C702.697 420 697.864 418.433 694.53 415.3C691.197 412.167 689.53 407.2 689.53 400.4V365.1H700.23V398.8C700.23 407.133 703.864 411.3 711.13 411.3C716.664 411.3 720.497 409.667 722.63 406.4C724.764 403.133 725.83 398.467 725.83 392.4V365.1H736.43ZM780.319 364.1C786.585 364.1 791.385 365.667 794.719 368.8C798.052 371.933 799.719 376.967 799.719 383.9V419H789.219V385.4C789.219 377 785.519 372.8 778.119 372.8C772.585 372.8 768.785 374.433 766.719 377.7C764.652 380.967 763.619 385.667 763.619 391.8V419H753.019V365.1H761.419L762.919 372.3H763.519C765.252 369.5 767.619 367.433 770.619 366.1C773.685 364.767 776.919 364.1 780.319 364.1ZM834.507 420C828.04 420 822.807 417.667 818.807 413C814.874 408.333 812.907 401.4 812.907 392.2C812.907 382.933 814.907 375.933 818.907 371.2C822.907 366.467 828.174 364.1 834.707 364.1C838.774 364.1 842.107 364.867 844.707 366.4C847.307 367.933 849.407 369.8 851.007 372H851.607C851.474 371.133 851.307 369.8 851.107 368C850.907 366.2 850.807 364.6 850.807 363.2V343H861.407V419H853.107L851.307 411.8H850.807C849.274 414.133 847.207 416.1 844.607 417.7C842.007 419.233 838.64 420 834.507 420ZM837.007 411.3C842.207 411.3 845.874 409.867 848.007 407C850.14 404.067 851.207 399.7 851.207 393.9V392.3C851.207 386.033 850.174 381.233 848.107 377.9C846.107 374.5 842.374 372.8 836.907 372.8C832.574 372.8 829.307 374.567 827.107 378.1C824.907 381.567 823.807 386.333 823.807 392.4C823.807 398.467 824.907 403.133 827.107 406.4C829.307 409.667 832.607 411.3 837.007 411.3Z" fill="white"/>
<defs>
<filter id="filter0_d_74_21" x="0" y="111" width="1002" height="402" filterUnits="userSpaceOnUse" color-interpolation-filters="sRGB">
<feFlood flood-opacity="0" result="BackgroundImageFix"/>
<feColorMatrix in="SourceAlpha" type="matrix" values="0 0 0 0 0 0 0 0 0 0 0 0 0 0 0 0 0 0 127 0" result="hardAlpha"/>
<feOffset/>
<feGaussianBlur stdDeviation="4"/>
<feComposite in2="hardAlpha" operator="out"/>
<feColorMatrix type="matrix" values="0 0 0 0 0.87451 0 0 0 0 0.0745098 0 0 0 0 0.0745098 0 0 0 1 0"/>
<feBlend mode="normal" in2="BackgroundImageFix" result="effect1_dropShadow_74_21"/>
<feBlend mode="normal" in="SourceGraphic" in2="effect1_dropShadow_74_21" result="shape"/>
</filter>
<filter id="filter1_d_74_21" x="403" y="0" width="196" height="90" filterUnits="userSpaceOnUse" color-interpolation-filters="sRGB">
<feFlood flood-opacity="0" result="BackgroundImageFix"/>
<feColorMatrix in="SourceAlpha" type="matrix" values="0 0 0 0 0 0 0 0 0 0 0 0 0 0 0 0 0 0 127 0" result="hardAlpha"/>
<feOffset/>
<feGaussianBlur stdDeviation="4"/>
<feComposite in2="hardAlpha" operator="out"/>
<feColorMatrix type="matrix" values="0 0 0 0 0.87451 0 0 0 0 0.0745098 0 0 0 0 0.0745098 0 0 0 1 0"/>
<feBlend mode="normal" in2="BackgroundImageFix" result="effect1_dropShadow_74_21"/>
<feBlend mode="normal" in="SourceGraphic" in2="effect1_dropShadow_74_21" result="shape"/>
</filter>
</defs>
</svg>
