<svg width="196" height="37" viewBox="0 0 196 37" fill="none" xmlns="http://www.w3.org/2000/svg">
<path d="M0.986328 23.1836H3.46484V6.18555H0.986328V1.35156H11.9551L19.8125 20.582L27.1074 1.35156H38.2344V6.18555H35.7559V23.1836H38.1992V28H28.2324V23.1836H30.0605V7.85547L22.0801 27.6836H17.1406L9.01953 8.38281V23.1836H11.0059V28H0.986328V23.1836ZM41.5039 18.8242C41.5039 17.5 41.7441 16.2578 42.2246 15.0977C42.7051 13.9375 43.373 12.9238 44.2285 12.0566C45.084 11.1895 46.1035 10.5039 47.2871 10C48.4707 9.49609 49.7715 9.24414 51.1895 9.24414C52.6074 9.24414 53.9082 9.49609 55.0918 10C56.2871 10.5039 57.3125 11.1895 58.168 12.0566C59.0234 12.9238 59.6855 13.9375 60.1543 15.0977C60.6348 16.2578 60.875 17.5 60.875 18.8242C60.875 20.1484 60.6406 21.3965 60.1719 22.5684C59.7148 23.7285 59.0586 24.748 58.2031 25.627C57.3594 26.4941 56.3398 27.1797 55.1445 27.6836C53.9609 28.1875 52.6426 28.4395 51.1895 28.4395C49.7246 28.4395 48.3945 28.1875 47.1992 27.6836C46.0156 27.1797 45.002 26.4941 44.1582 25.627C43.3145 24.7598 42.6582 23.7461 42.1895 22.5859C41.7324 21.4141 41.5039 20.1602 41.5039 18.8242ZM46.7598 18.8242C46.7598 19.5156 46.877 20.1543 47.1113 20.7402C47.3457 21.3145 47.6621 21.8125 48.0605 22.2344C48.4707 22.6562 48.9395 22.9844 49.4668 23.2188C50.0059 23.4531 50.5801 23.5703 51.1895 23.5703C51.8105 23.5703 52.3848 23.459 52.9121 23.2363C53.4512 23.002 53.9141 22.6738 54.3008 22.252C54.6992 21.8301 55.0098 21.332 55.2324 20.7578C55.4551 20.1719 55.5664 19.5273 55.5664 18.8242C55.5664 18.0977 55.4551 17.4414 55.2324 16.8555C55.0098 16.2695 54.6992 15.7715 54.3008 15.3613C53.9141 14.9512 53.4512 14.6406 52.9121 14.4297C52.3848 14.207 51.8105 14.1016 51.1895 14.1133C50.5801 14.1016 50.0059 14.207 49.4668 14.4297C48.9395 14.6406 48.4707 14.9512 48.0605 15.3613C47.6621 15.7715 47.3457 16.2695 47.1113 16.8555C46.877 17.4414 46.7598 18.0977 46.7598 18.8242ZM62.8613 9.78906H72.3711V14.6055H70.1562L73.127 22.4277L75.9922 14.6055H74.0234V9.78906H83.5332V14.6055H81.1074L75.6758 28.0703H70.3145L64.8828 14.6055H62.8613V9.78906ZM85.6602 9.78906H93.834V23.1836H96.3652V28H85.6602V23.1836H88.4023V14.6055H85.6602V9.78906ZM88.1211 3.91797C88.1211 3.48437 88.1973 3.08008 88.3496 2.70508C88.5137 2.31836 88.7363 1.98438 89.0176 1.70312C89.2988 1.42188 89.627 1.19922 90.002 1.03516C90.3887 0.871094 90.8047 0.789062 91.25 0.789062C91.6719 0.789062 92.0703 0.871094 92.4453 1.03516C92.8203 1.19922 93.1484 1.42188 93.4297 1.70312C93.7109 1.98438 93.9336 2.31836 94.0977 2.70508C94.2617 3.08008 94.3438 3.48437 94.3438 3.91797C94.3438 4.35156 94.2617 4.76172 94.0977 5.14844C93.9336 5.52344 93.7109 5.85156 93.4297 6.13281C93.1484 6.41406 92.8203 6.63672 92.4453 6.80078C92.0703 6.96484 91.6719 7.04688 91.25 7.04688C90.8047 7.04688 90.3887 6.96484 90.002 6.80078C89.627 6.63672 89.2988 6.41406 89.0176 6.13281C88.7363 5.85156 88.5137 5.52344 88.3496 5.14844C88.1973 4.76172 88.1211 4.35156 88.1211 3.91797ZM104.275 20.0371L104.328 20.582C104.457 21.1094 104.674 21.5723 104.979 21.9707C105.295 22.3691 105.664 22.7031 106.086 22.9727C106.508 23.2422 106.977 23.4473 107.492 23.5879C108.008 23.7168 108.529 23.7812 109.057 23.7812C109.584 23.7812 110.082 23.752 110.551 23.6934C111.031 23.623 111.494 23.5352 111.939 23.4297C112.385 23.3125 112.818 23.1836 113.24 23.043C113.662 22.8906 114.09 22.7324 114.523 22.5684L116.457 26.1719C115.789 26.582 115.174 26.9336 114.611 27.2266C114.061 27.5078 113.504 27.7422 112.941 27.9297C112.379 28.1172 111.781 28.252 111.148 28.334C110.516 28.4277 109.777 28.4746 108.934 28.4746C107.352 28.4746 105.945 28.2168 104.715 27.7012C103.484 27.1738 102.447 26.4648 101.604 25.5742C100.771 24.6836 100.133 23.6406 99.6875 22.4453C99.2539 21.25 99.0371 19.9844 99.0371 18.6484C99.0371 17.3125 99.2656 16.0586 99.7227 14.8867C100.191 13.7148 100.848 12.6953 101.691 11.8281C102.535 10.9492 103.543 10.2578 104.715 9.75391C105.887 9.25 107.188 8.99805 108.617 8.99805C110.047 8.99805 111.312 9.23828 112.414 9.71875C113.527 10.1875 114.465 10.8438 115.227 11.6875C115.988 12.5195 116.574 13.5039 116.984 14.6406C117.395 15.7656 117.617 16.9785 117.652 18.2793C117.688 18.5723 117.705 18.8652 117.705 19.1582C117.717 19.4395 117.711 19.7324 117.688 20.0371H104.275ZM108.477 13.3926C107.82 13.3926 107.258 13.4746 106.789 13.6387C106.332 13.791 105.945 14.0078 105.629 14.2891C105.312 14.5586 105.061 14.8691 104.873 15.2207C104.686 15.5723 104.539 15.9414 104.434 16.3281H112.045C111.963 15.9297 111.846 15.5547 111.693 15.2031C111.541 14.8516 111.33 14.541 111.061 14.2715C110.791 14.002 110.445 13.791 110.023 13.6387C109.613 13.4746 109.098 13.3926 108.477 13.3926ZM138.799 27.0156C138.389 27.2734 138.014 27.4961 137.674 27.6836C137.334 27.8594 136.994 28 136.654 28.1055C136.314 28.2227 135.963 28.3047 135.6 28.3516C135.236 28.4102 134.838 28.4395 134.404 28.4395C133.314 28.4395 132.336 28.293 131.469 28C130.613 27.6953 129.887 27.2852 129.289 26.7695C128.703 26.2422 128.252 25.627 127.936 24.9238C127.619 24.209 127.461 23.4355 127.461 22.6035C127.461 21.7598 127.619 20.9805 127.936 20.2656C128.264 19.5508 128.732 18.9414 129.342 18.4375C129.951 17.9219 130.695 17.5234 131.574 17.2422C132.465 16.9492 133.479 16.8027 134.615 16.8027C135.447 16.8027 136.203 16.8496 136.883 16.9434C137.574 17.0254 138.213 17.1309 138.799 17.2598V16.6973C138.799 16.2402 138.711 15.8477 138.535 15.5195C138.359 15.1797 138.113 14.9043 137.797 14.6934C137.48 14.4707 137.1 14.3125 136.654 14.2188C136.209 14.1133 135.723 14.0605 135.195 14.0605C134.094 14.0605 133.121 14.1719 132.277 14.3945C131.445 14.6055 130.643 14.916 129.869 15.3262L128.182 11.916C129.377 11.0957 130.625 10.4688 131.926 10.0352C133.238 9.60156 134.627 9.38477 136.092 9.38477C137.229 9.38477 138.277 9.51367 139.238 9.77148C140.211 10.0176 141.043 10.4277 141.734 11.002C142.426 11.5645 142.965 12.3027 143.352 13.2168C143.75 14.1309 143.949 15.2441 143.949 16.5566V23.1836H146.393V28H138.799V27.0156ZM134.791 24.291C135.623 24.291 136.379 24.1562 137.059 23.8867C137.738 23.6172 138.318 23.2891 138.799 22.9023V20.582H134.58C134.311 20.582 134.047 20.623 133.789 20.7051C133.531 20.7871 133.297 20.9043 133.086 21.0566C132.887 21.209 132.723 21.3965 132.594 21.6191C132.477 21.8418 132.418 22.0996 132.418 22.3926C132.418 22.9316 132.611 23.3828 132.998 23.7461C133.396 24.1094 133.994 24.291 134.791 24.291ZM150.787 9.78906H158.732V10.0527C159.295 9.80664 159.869 9.61328 160.455 9.47266C161.041 9.32031 161.645 9.24414 162.266 9.24414C163.602 9.24414 164.844 9.49609 165.992 10C167.141 10.5039 168.137 11.1895 168.98 12.0566C169.824 12.9238 170.48 13.9375 170.949 15.0977C171.43 16.2578 171.67 17.4883 171.67 18.7891C171.67 20.1016 171.436 21.3379 170.967 22.498C170.51 23.6582 169.865 24.6719 169.033 25.5391C168.201 26.3945 167.205 27.0742 166.045 27.5781C164.896 28.0703 163.637 28.3164 162.266 28.3164C161.492 28.3164 160.771 28.2402 160.104 28.0879C159.436 27.9473 158.791 27.7422 158.17 27.4727V31.4629H161.65V36.2793H149.768V31.4629H152.756V14.6055H150.787V9.78906ZM161.879 14.0957C161.141 14.0957 160.449 14.2891 159.805 14.6758C159.16 15.0625 158.615 15.6074 158.17 16.3105V21.4434C158.545 22.041 159.055 22.5273 159.699 22.9023C160.344 23.2773 161.07 23.4648 161.879 23.4648C162.477 23.4648 163.045 23.3535 163.584 23.1309C164.123 22.8965 164.592 22.5742 164.99 22.1641C165.389 21.7422 165.705 21.25 165.939 20.6875C166.174 20.1133 166.291 19.4922 166.291 18.8242C166.291 18.0859 166.174 17.4238 165.939 16.8379C165.717 16.252 165.406 15.7598 165.008 15.3613C164.609 14.9512 164.141 14.6406 163.602 14.4297C163.062 14.207 162.488 14.0957 161.879 14.0957ZM174.834 9.78906H182.779V10.0527C183.342 9.80664 183.916 9.61328 184.502 9.47266C185.088 9.32031 185.691 9.24414 186.312 9.24414C187.648 9.24414 188.891 9.49609 190.039 10C191.188 10.5039 192.184 11.1895 193.027 12.0566C193.871 12.9238 194.527 13.9375 194.996 15.0977C195.477 16.2578 195.717 17.4883 195.717 18.7891C195.717 20.1016 195.482 21.3379 195.014 22.498C194.557 23.6582 193.912 24.6719 193.08 25.5391C192.248 26.3945 191.252 27.0742 190.092 27.5781C188.943 28.0703 187.684 28.3164 186.312 28.3164C185.539 28.3164 184.818 28.2402 184.15 28.0879C183.482 27.9473 182.838 27.7422 182.217 27.4727V31.4629H185.697V36.2793H173.814V31.4629H176.803V14.6055H174.834V9.78906ZM185.926 14.0957C185.188 14.0957 184.496 14.2891 183.852 14.6758C183.207 15.0625 182.662 15.6074 182.217 16.3105V21.4434C182.592 22.041 183.102 22.5273 183.746 22.9023C184.391 23.2773 185.117 23.4648 185.926 23.4648C186.523 23.4648 187.092 23.3535 187.631 23.1309C188.17 22.8965 188.639 22.5742 189.037 22.1641C189.436 21.7422 189.752 21.25 189.986 20.6875C190.221 20.1133 190.338 19.4922 190.338 18.8242C190.338 18.0859 190.221 17.4238 189.986 16.8379C189.764 16.252 189.453 15.7598 189.055 15.3613C188.656 14.9512 188.188 14.6406 187.648 14.4297C187.109 14.207 186.535 14.0957 185.926 14.0957Z" fill="#DF1313"/>
</svg>