<svg width="23" height="23" viewBox="0 0 23 23" fill="none" xmlns="http://www.w3.org/2000/svg">
<path fill-rule="evenodd" clip-rule="evenodd" d="M15.3875 14.5H16.375L22.6125 20.75L20.75 22.6125L14.5 16.375V15.3875L14.1625 15.0375C12.7375 16.2625 10.8875 17 8.875 17C4.3875 17 0.75 13.3625 0.75 8.875C0.75 4.3875 4.3875 0.75 8.875 0.75C13.3625 0.75 17 4.3875 17 8.875C17 10.8875 16.2625 12.7375 15.0375 14.1625L15.3875 14.5ZM3.25 8.875C3.25 11.9875 5.7625 14.5 8.875 14.5C11.9875 14.5 14.5 11.9875 14.5 8.875C14.5 5.7625 11.9875 3.25 8.875 3.25C5.7625 3.25 3.25 5.7625 3.25 8.875Z" fill="white"/>
</svg>
